<?xml version="1.0" encoding="utf-8"?>
<!-- Generator: Adobe Illustrator 23.0.3, SVG Export Plug-In . SVG Version: 6.00 Build 0)  -->
<svg version="1.1" id="Layer_1" xmlns="http://www.w3.org/2000/svg" xmlns:xlink="http://www.w3.org/1999/xlink" x="0px" y="0px"
	 viewBox="0 0 559 430" style="enable-background:new 0 0 559 430;" xml:space="preserve">
<style type="text/css">
	.st0{display:none;}
	.st1{display:inline;}
	.st2{clip-path:url(#SVGID_2_);}
	.st3{fill:#C8EAF5;}
	.st4{opacity:0.25;fill:url(#SVGID_3_);enable-background:new    ;}
	.st5{display:inline;fill:#29ABE2;}
	.st6{fill:none;stroke:#B0A690;stroke-width:10;stroke-miterlimit:10;}
	.st7{fill:#3B4D81;}
	.st8{fill:#DAD7C5;}
	.st9{fill:#C6CDC7;}
	.st10{fill:#54C2BA;}
	.st11{fill:#0071BC;}
	.st12{fill:#B0A690;}
	.st13{fill:none;stroke:#000000;stroke-miterlimit:10;}
	.st14{enable-background:new    ;}
	.st15{clip-path:url(#SVGID_5_);enable-background:new    ;}
	.st16{fill:#908E82;}
	.st17{fill:#8C8A7E;}
	.st18{fill:#87857A;}
	.st19{fill:#BEBCAC;}
	.st20{clip-path:url(#SVGID_7_);enable-background:new    ;}
	.st21{fill:#717066;}
	.st22{fill:#76746A;}
	.st23{fill:#7A786E;}
	.st24{fill:#7E7D72;}
	.st25{fill:#838176;}
	.st26{clip-path:url(#SVGID_9_);enable-background:new    ;}
	.st27{clip-path:url(#SVGID_11_);enable-background:new    ;}
	.st28{clip-path:url(#SVGID_13_);enable-background:new    ;}
	.st29{clip-path:url(#SVGID_15_);enable-background:new    ;}
	.st30{fill:#FFFFFF;}
	.st31{display:inline;fill:#1B1464;}
	.st32{font-family:'ArialMT';}
	.st33{font-size:130px;}
</style>
<g id="Hex" class="st0">
	<title></title>
	<g class="st1">
		<g>
			<defs>
				<polygon id="SVGID_1_" points="282.5,-137.9 641.2,69.2 641.2,491.3 282.5,699.7 -84.2,491.3 -84.2,69.2 				"/>
			</defs>
			<clipPath id="SVGID_2_">
				<use xlink:href="#SVGID_1_"  style="overflow:visible;"/>
			</clipPath>
			<g class="st2">
				<circle class="st3" cx="297.5" cy="292.1" r="442.1"/>
				
					<linearGradient id="SVGID_3_" gradientUnits="userSpaceOnUse" x1="279.26" y1="-327.69" x2="280.56" y2="135.84" gradientTransform="matrix(1 0 0 1 0 60)">
					<stop  offset="0" style="stop-color:#FFFFFF;stop-opacity:0.83"/>
					<stop  offset="0.56" style="stop-color:#FFFFFF;stop-opacity:0.37"/>
					<stop  offset="1" style="stop-color:#FFFFFF;stop-opacity:0"/>
				</linearGradient>
				<ellipse class="st4" cx="279.9" cy="-39.5" rx="315.2" ry="234.6"/>
			</g>
		</g>
	</g>
	<path class="st5" d="M618.6,50.9L340.8-109.5l-60.3-34.8l-60.3,34.8L-57.6,50.9l-29.3,16.9V492l29.3,17l281.3,162.4l56.9,32.8
		l56.9-32.8L618.6,509l29.3-16.9V67.8L618.6,50.9z M618.6,476.2L280.5,671.4L-57.6,476.2V85.7l338.1-195.2l0,0L618.6,85.7V476.2z"/>
</g>
<g id="Graphic">
	<polyline class="st6" points="191.5,228 194.4,212.6 215.3,204.8 317,226.3 	"/>
	<path class="st7" d="M442.4,39.4c-0.4,0-5.8,2.2-7.6,3.1l-1.2,0.6l1.4-0.9c1.4-1,1.7-1.4,1.3-2.4c-0.1-0.4-0.1-0.9,0-1.1
		c0.1-0.3,0.2-0.9,0.1-1.2c-0.1-0.4,0.2-2.2,0.7-4.1c0.6-2.4,0.7-3.5,0.5-3.8c-0.5-0.6-2-0.6-3.2-0.1c-0.5,0.2-1.7,0.7-2.5,1
		c-2.6,1-3.6,1.4-4.2,1.6c-0.3,0.1-1.5,0.5-2.7,0.9c-1.8,0.6-2.1,0.7-2.2,1.2c0,0.3-0.1,0.5-0.2,0.4s-0.5-0.3-0.8-0.6
		c-0.5-0.4-0.9-0.5-1.4-0.3c-0.9,0.3-3.6,0.6-5.8,0.6c-1,0-3.2,0-4.9,0c-3,0-9.4-0.2-10.8-0.4c-0.4,0-1.3-0.3-2-0.7
		c-0.8-0.4-1.6-0.5-2-0.4c-0.3,0.1-1.1,0-1.7-0.3c-1.1-0.5-1.2-0.5-2.3,0.2c-0.6,0.4-1.4,0.7-1.7,0.7c-0.3,0-2.2,0.6-4.1,1.3
		c-3.6,1.3-3.6,1.3-5.1,1c-0.8-0.2-1.6-0.3-1.7-0.2c-0.1,0-1.3-0.2-2.6-0.5c-2.2-0.5-2.5-0.5-3.9,0c-1,0.4-2.2,1.1-3.5,2.1
		c-1.9,1.5-2,1.5-2.7,1.4c-1.2-0.3-2.6-0.1-4.6,0.6c-1.7,0.6-1.9,0.8-3.2,2.6c-1.3,1.8-1.5,2-3,2.5c-1.5,0.6-1.7,0.7-2.5,2
		c-0.5,0.8-0.8,1.5-0.7,1.7c0.1,0.2-0.2,0.2-0.8-0.1c-0.9-0.4-1-0.4-2.9,0.4l-2,0.8l-0.9,1.9l-0.9,1.9l-0.8-0.3
		c-0.9-0.4-2.9-0.4-3.9-0.1c-0.4,0.1-0.8,0.7-1,1.4c-0.3,0.7-0.8,1.4-1.2,1.6c-0.9,0.5-4.1,3.8-4.2,4.3c0,0.2-0.5,0.4-1,0.5
		c-0.7,0.1-1,0.4-1.4,1c-0.5,0.7-0.6,0.8-1.8,0.7c-2.1-0.1-2.6,0.2-3.2,2c-0.3,0.8-0.4,2-0.3,2.5s0.1,1.9,0,3
		c-0.2,1.5-0.4,2.1-0.8,2.4c-0.8,0.6-1.5,2.4-1.2,3.7c0.2,1.3,0,1.9-0.9,2s-1.4,0.8-1.1,1.6s-0.4,2.5-2,4.4
		c-0.9,1.1-1.3,1.4-3.8,2.6c-1.6,0.8-3,1.5-3.1,1.8c-0.2,0.3,0,1.4,0.5,3.4c1.3,4.9,2.9,11,3,11.4c0.1,0.2-0.1,0.5-0.4,0.8
		c-0.3,0.2-0.7,1.3-0.9,2.3c-0.2,1-1.1,5.3-2,9.6s-2,9.6-2.5,11.8l-0.8,4l1.8,8c2.2,9.9,2.7,11.5,3.2,11.8c0.3,0.1,1,0.1,1.8-0.1
		c0.7-0.2,1.3-0.2,1.4-0.1c0.3,0.7,2.3,9.3,2.2,9.6c0,0.2-0.4,0.6-0.7,0.9c-0.4,0.3-1.9,3.1-3.3,6.1c-2.9,6.1-4.2,7.9-6,8.3
		c-1.3,0.3-2.5,1.6-3.1,3.4c-1.2,3.5-2.4,9-2.2,9.8c0.1,0.8,0.4,1,1.6,1.6c1,0.5,2.1,0.8,3.4,0.9c1.8,0.1,1.9,0.1,2.2,0.9
		c0.2,0.5,0.4,0.9,0.6,1s0.4,0.7,0.5,1.7c0.1,0.8,0.4,2,0.6,2.7c0.5,1.3,0.5,1.6-0.4,2.4c-0.3,0.3-1,1.5-1.4,2.7
		c-0.7,1.8-0.9,2.3-1.9,3c-2,1.5-4.4,4.1-5.3,5.8c-0.5,0.9-1,1.7-1.2,1.8c-0.7,0.3-1.8,2-1.7,2.8c0.1,0.6-0.1,0.7-1,1.1
		c-0.6,0.2-1.6,0.8-2.3,1.4c-1.5,1.2-4,3.9-4.3,4.5c-0.4,1.1-0.6,7.2-0.3,8.8c0.1,0.9,0.2,2.3,0,3.1c-0.2,1.2-0.2,1.6,0.3,2.7
		c0.3,0.7,0.8,1.4,1,1.4c0.8,0.2,1.9-0.5,2.3-1.4c0.3-0.6,1.2-1.4,2.5-2.4c1.9-1.4,2.2-1.5,3.4-1.7c0.7-0.1,1.5-0.3,1.7-0.4
		c0.2-0.2,0.7-0.2,1.1-0.1s1.3,0.1,2-0.1c0.9-0.2,1.3-0.2,1.6,0.1c0.2,0.2,0.8,0.5,1.4,0.6c0.7,0.1,1.2,0.4,1.5,0.9s0.7,0.7,1.3,0.7
		c0.6,0,1,0.2,1.3,0.6c0.6,0.9,1.1,1.1,1.8,0.9c0.5-0.2,0.6-0.1,0.5,0.3c-0.1,0.7,1,1.9,4,4.5c1.9,1.6,2.4,2,3.2,1.9
		c0.5,0,1.3,0.3,1.8,0.6c0.6,0.4,1.1,0.6,1.5,0.4c0.5-0.2,0.6-0.1,0.7,0.5c0.1,0.4,0.7,1.5,1.3,2.5c0.7,1,1.9,2.9,2.8,4.2l1.6,2.5
		l0.3,2.3c0.2,1.3,0.4,3,0.5,3.8c0.2,1.7,0.7,2.2,1.8,1.9c0.6-0.1,0.7-0.1,0.8,0.6c0.1,0.4-0.2,1.2-0.5,1.8
		c-0.3,0.6-0.5,1.3-0.4,1.6c0.1,0.3-0.1,1.1-0.4,1.7c-0.6,1.2-0.9,3.5-0.6,4.3c0.1,0.3,0.5,0.6,1,0.8c1,0.4,1.2,0.8,0.8,1.3
		c-0.7,0.6,0.6,2.4,1.8,2.4h0.7l-0.1,1.5c0,0.8-0.3,1.7-0.5,1.9c-0.8,0.8-0.5,1.5,0.9,2.8c1.1,1,1.5,1.2,2,1
		c0.6-0.2,0.7-0.3,1.5-4.5l0.2-0.7l0.9,0.4c0.5,0.2,1.1,0.6,1.5,0.9c0.7,0.6,1.7,0.4,2.5-0.6c0.5-0.6,0.6-0.6,1.3,0.2
		c0.6,0.7,0.9,1.2,1.2,2.5c0.3,1.2,0.5,1.7,0.8,1.8c0.2,0,0.3,0.2,0.3,0.4c0,0.2,0.2,0.5,0.5,0.7c0.5,0.3,0.5,0.4,0.2,1.1
		c-0.2,0.4-0.2,1.2-0.1,1.8c0.2,0.8,0.4,1.1,1.1,1.4c0.5,0.2,1,0.6,1.1,1.1c0.1,0.4,0.5,0.8,0.7,0.8c0.4,0.2,1.7,3.3,1.7,4.3
		c0.1,3.2,0.3,4.6,0.6,5.1c0.3,0.5,0.3,0.6,0,0.6s-0.6,0.5-0.9,1.2c-0.3,0.6-0.7,1.3-1.1,1.5c-1,0.5-0.5,1.5,2,3.7
		c1.3,1.1,2.7,2.2,3.2,2.4c2.1,0.8,2,3-0.1,7.5c-0.9,1.9-1.4,3.3-1.3,3.8c0.2,1.3-1.3,3.1-3,3.7c-0.7,0.2-1.6,0.4-1.9,0.3
		c-1.1-0.1-3.2,0.8-3.8,1.7c-0.3,0.4-0.5,1-0.5,1.3s-0.3,0.6-0.8,0.8c-0.6,0.2-1.1,0.7-1.5,1.6c-0.4,0.7-1.1,1.8-1.6,2.5
		c-0.7,0.9-0.8,1.4-0.6,1.9c0.2,0.4,0.1,0.7-0.1,0.8c-0.2,0.1-0.7,0.9-1.2,1.7c-0.9,1.8-1.5,2.4-2.3,2.7c-0.7,0.3-1.1,0.9-0.8,1.4
		c0.3,0.9-0.1,2.9-1,4.1c-0.5,0.7-0.8,1.6-0.8,1.9c0,0.4-0.2,0.8-0.6,1s-0.5,0.5-0.5,0.8c0.2,1,2,3,3.3,3.8l1.4,0.8l1.2-0.7
		c1.1-0.7,1.3-0.7,2.2-0.4c1,0.3,1.1,0.3,2.3-0.5c1-0.6,1.6-0.8,2.6-1c1.2-0.2,1.5-0.3,2.5-1.3c0.6-0.6,1.6-1.8,2.3-2.8
		s1.9-2.3,2.8-3c1.2-1,1.7-1.5,1.7-2.1c0.1-0.8,1.2-1.6,2.7-1.9c0.9-0.2,1.1-0.4,2.2-2c0.7-1,1.3-2.2,1.3-2.8
		c0.1-0.5,0.3-1.1,0.5-1.1c0.2-0.1,0.9-1.1,1.6-2.2c1.1-1.9,1.3-2.1,2.4-2.4c1-0.3,1.3-0.6,1.6-1.1c0.2-0.4,0.7-1,1.2-1.2
		c0.4-0.3,1-0.7,1.2-1c0.7-0.9,5.1-3,6.5-3.1c1.3-0.1,3.7,0.1,5,0.4c0.4,0.1,1.1,0.1,1.6,0.1c1.5-0.2,3.5,0.6,6.2,2.3
		c2,1.3,2.9,1.7,3.6,1.7c0.5,0,1.3,0.1,1.6,0.3c0.3,0.2,1.4,0.3,2.5,0.4c3.8,0.1,5.4,0.8,6.4,2.7c0.7,1.4,2.3,2.1,3.9,1.8
		c1.9-0.3,5.6,1.1,7.1,2.7c0.5,0.5,1.3,1.2,1.8,1.6c0.8,0.5,1.1,0.5,2,0.2c0.8-0.3,1.1-0.6,1.2-1c0-0.3,0-0.7-0.2-0.8
		c-0.1-0.1,0-0.3,0.4-0.4c0.5-0.2,0.7-0.1,0.9,0.3c0.3,0.8,1.7,1.8,2.9,2c1.4,0.3,3.8-0.6,4.2-1.5c0.3-0.6,0.2-0.8-0.2-1.2
		c-0.9-1-0.7-1.6,0.3-0.7c0.7,0.7,2,0.5,3-0.6c0.4-0.5,1.1-1.1,1.5-1.3c1-0.6,1.5-2.2,1.1-3.3c-0.2-0.6-0.2-0.9,0.2-1.2
		c0.3-0.2,0.7-0.3,0.8-0.2c0.5,0.2,1.6-0.2,2-0.9c0.2-0.3,0.7-0.7,1-0.8c1.1-0.4,1.9-1.2,2.2-2.1c0.2-0.6,0.5-0.9,0.9-0.9
		c0.5,0,0.6,0.1,0.6,0.9c0,0.7-0.1,1.1-0.7,1.5c-0.5,0.3-0.7,0.7-0.6,1.1c0.1,0.5,0,0.7-0.5,0.7c-0.3,0-1.3,0.2-2.2,0.5
		c-1.3,0.4-1.7,0.6-2,1.1s-0.3,0.8-0.1,1.2c0.5,0.6,2.9,0.9,5.3,0.6c1.1-0.1,2.4-0.2,3-0.1c0.7,0.1,1.5,0,2.9-0.5
		c2-0.7,2.6-1.2,3.2-2.4c0.4-0.7,0.4-0.7,0.5-0.2c0.3,0.8,2.2,1.4,4.9,1.7l2.5,0.3l3.5-1.3l3.5-1.3l1.7,1.3c0.9,0.7,2.3,1.9,3,2.6
		c1,1.1,1.6,1.4,2.8,1.7c1.7,0.4,2.3,0.1,2.4-0.8c0.1-0.5,0.2-0.4,1.8,1c1,1,2,1.7,2.4,1.7c0.5,0,0.7,0.2,0.8,0.8
		c0.1,0.6,0.4,0.8,1.5,1.2c1.1,0.4,1.4,0.5,1.4,1.2c0.1,0.5,0.3,0.9,0.6,1.1s0.9,0.7,1.4,1.1c0.8,0.8,1,0.8,2.1,0.5
		c1.6-0.5,3.4-2.4,3-3.2c-0.4-1-1.6-1.6-2.7-1.2l-0.9,0.3l0.8-1.2c0.4-0.6,0.7-1.4,0.6-1.6c-0.3-0.7-0.1-0.8,1.3-0.9
		c1.2,0,1.3-0.1,2-0.8c0.8-0.8,1-0.9,4.6-1.1c1.3-0.1,2.6-0.3,3-0.5c0.6-0.3,0.7-0.2,1,0.4c0.2,0.4,0.7,0.7,1.1,0.8
		c0.4,0.1,0.8,0.4,0.9,0.7c0.3,0.8,2,1.4,3.5,1.2c1-0.1,1.4,0,1.8,0.5c0.3,0.3,1,0.8,1.6,1c0.8,0.2,1.1,0.5,1.2,1
		c0.1,0.5,0.3,0.8,1,1c0.5,0.2,1.3,0.6,1.9,1c0.6,0.4,1.5,0.8,2,1c0.6,0.1,1.2,0.4,1.5,0.7c0.6,0.6,1.5,0.4,2.1-0.6
		c0.3-0.4,0.7-0.9,1-1.1c0.4-0.3,0.5-0.8,0.4-1.7c-0.1-1.1,0.1-1.5,0.6-2.1c0.4-0.4,0.8-1.2,0.9-1.8c0.2-1.1,0.3-1.2,5.8-5.4
		c1.1-0.8,2.1-1.7,2.3-2c0.4-0.7,1-4.1,0.9-4.5c-0.1-0.2-0.8-0.8-1.6-1.5c-0.8-0.6-1.4-1.2-1.5-1.2s0.3-0.2,0.6-0.4
		c0.5-0.3,0.6-0.5,0.4-1.1c-0.4-1.4-1.2-1.6-5.6-1.3l-4.1,0.3l-3.4,1.4c-3.2,1.3-3.4,1.3-4.3,1.1c-0.5-0.2-1.2-0.2-1.7,0
		s-0.8,0.2-0.8,0c0-0.5-1.4-1.7-2.3-2c-0.5-0.1-1.2-0.2-1.8-0.1l-0.9,0.1l-1.9-2.9c-2.3-3.5-5.9-9-6.7-10.3c-0.3-0.5-0.8-1.2-1-1.4
		c-0.6-0.7-6.8-3.2-7.7-3.1c-0.4,0-1.5-0.2-2.5-0.6c-1.9-0.7-3-0.5-3.5,0.6c-0.2,0.4-0.6,0.8-0.9,1.1c-1.3,1-6.3-2.9-6.1-4.7
		c0-0.4-0.1-1.1-0.3-1.6c-0.3-0.9-3-5-3.4-5.3c-0.1-0.1-1-0.1-1.8,0c-1.6,0.2-1.6,0.2-2.2,1.1c-0.4,0.6-0.8,1-1.2,1
		c-0.8,0-5.2-2.1-6.3-3.1c-0.5-0.5-1.3-1-1.8-1.2c-1.1-0.4-3.1-1.8-4.4-3.2c-0.6-0.7-1.6-1.3-2.4-1.5c-1.1-0.4-1.3-0.5-1.5-1.2
		c-0.1-0.6-0.5-1-1.3-1.5c-1-0.6-1.2-0.8-1.4-1.9c-0.3-1.3-0.2-4.3,0.1-4.4c0.1,0,0.6,0,1,0.2c0.5,0.1,1.1,0.1,1.6,0
		c0.4-0.2,1-0.1,1.4,0.1s0.9,0.2,1.2,0.1c0.5-0.2,0.8-0.1,1.9,0.5c0.3,0.1,1.3,0.1,2.4-0.1l2-0.4l2.8-2.2c1.5-1.2,2.9-2.5,3-2.8
		s0.2-1.2,0.1-2l-0.2-1.5l-1.2-0.5c-0.6-0.3-1.7-0.6-2.3-0.8c-0.6-0.2-1.1-0.5-1-0.6s0.7,0,1.4,0.3s1.6,0.6,1.9,0.6
		c1,0.1,4-1.1,5.2-2.1c0.8-0.7,1.2-0.8,1.8-0.8c0.5,0,1-0.1,1.2-0.3c0.5-0.4,1-2.7,0.8-4.2c-0.1-0.7,0-1.6,0.1-1.9
		c0.1-0.4,0.2-1.3,0.1-2.1c-0.1-0.8-0.1-1.5,0-1.5s0.5,0.8,1,1.7c1,2.2,2.2,3.5,3.2,3.3c0.8-0.2,0.9-0.5,1-3.5
		c0-1.6-0.1-2.9-0.4-3.7l-0.5-1.3l0.9-0.5c1.3-0.7,1.4-1.3,0.3-2.6c-0.5-0.6-1.4-1.9-2-2.9c-0.8-1.3-1.5-2.1-2.5-2.8
		c-1.3-0.9-1.4-1-1.7-2.5c-0.3-1.2-0.3-1.9-0.1-2.7c0.5-1.5,0.5-2.6,0.1-3.6c-0.5-1.2,0.1-1.4,2-0.5c2.4,1.1,3,0.6,2.4-2
		c-0.3-1.4-0.4-1.5-1.3-1.8c-2.4-0.8-5.6-2.8-6.6-4c-0.5-0.6-1.2-1.2-1.7-1.5c-1.6-0.9-1.8-1-2-2.2c-0.2-1-0.2-1.2,0.2-1.2
		c0.7-0.1,1.1-1.1,0.7-2.1c-0.2-0.5-0.9-1.4-1.6-2.1c-0.7-0.7-1.3-1.3-1.2-1.3c0.2-0.1,2.7,1.1,4.2,2c0.8,0.5,3,2,5,3.5
		c3,2.2,3.7,2.6,4.2,2.4c1-0.4,1-1.6,0-4.2c-0.6-1.4-0.8-2.4-0.8-3.1c0-0.9,0-1.1-1.3-2.5c-1.4-1.7-1.6-2.2-1.1-3.8
		c0.2-0.6,0.3-1.2,0.2-1.4c-0.1-0.2,0.1-0.9,0.4-1.6c0.5-1,0.5-1.4,0.1-3.4c-0.3-1.5-0.7-2.5-1.1-3.1c-0.5-0.7-0.6-1.1-0.5-2.4
		c0-0.8,0-1.8-0.1-2c-0.1-0.4,0.2-0.6,1.6-1.5c1.7-1,1.8-1.1,1.9-2c0.1-1.9-0.8-2.8-2.3-2.5c-0.6,0.1-0.7,0.1-1.7-2.1
		c-1.6-3.5-3.7-9.2-7.6-20.6c-4.4-13-5.3-16.1-9.7-34c-2-8.2-2.2-8.8-3.5-15.3c-0.7-3.4-1.4-7-1.6-7.9c-0.2-0.9-0.5-2.4-0.7-3.5
		c-2.8-13.3-3.5-17.3-4.3-23.3c-0.5-3.8-1.1-8-1.2-9.2c-0.4-2.7-0.6-4.4-0.8-5.6c-0.1-0.5-0.3-2.1-0.5-3.6
		c-0.7-5.1-0.9-7.1-1.4-12.2C443.2,40.6,443,39.4,442.4,39.4z M475,246.4c-0.3,0.7-0.3,0.7-1.9,0.1c-0.8-0.3-1.5-0.4-1.9-0.2
		c-0.3,0.1-1,0.2-1.5,0s-1.3-0.2-1.7,0c-1,0.4-1.2,0.3-1.2-0.7c0-1.8-2.6-2.5-6.1-1.6c-4.3,1-6.3,2.1-9.2,4.8
		c-2.6,2.6-8.8,3.4-11.4,1.6c-1.3-0.9-1.2-1.6,0.1-2.8c0.6-0.5,1.2-1.2,1.3-1.6c0.1-0.5,0.5-0.8,1.3-1.1c0.6-0.2,2.3-1.2,3.8-2.1
		c2.4-1.5,2.8-1.7,3.5-1.6c0.5,0.1,1.4-0.1,2.6-0.6c1.4-0.6,1.9-0.7,2.8-0.5c0.7,0.1,1.5,0.1,2.3-0.3c0.7-0.3,1.4-0.4,1.5-0.3
		c0.4,0.4,4.3,0.2,5.5-0.2c1.1-0.3,1.2-0.4,1.1-1c-0.1-0.3-0.3-0.7-0.5-0.8c-0.9-0.4-0.4-0.6,1.1-0.4c1.7,0.2,2.2,0.6,2.4,1.7
		c0.1,0.9,1.1,1.9,1.8,1.9c0.3,0,0.7,0.3,1,0.9c0.3,0.5,0.8,1,1.1,1.2C474.5,243.7,475.5,245.3,475,246.4z M456.5,324.9
		c-0.3,0.4-0.5,0.2-0.2-0.3c0.2-0.3,0.3-0.3,0.4-0.2C456.7,324.5,456.6,324.8,456.5,324.9z"/>
	<polyline class="st6" points="320.4,225.7 309.7,234.8 308,246.3 	"/>
	<polygon class="st8" points="191.5,228 312.9,246.3 291.4,343.2 165.5,374 	"/>
	<polygon class="st9" points="191.5,228 172,374 56.3,360.5 42.9,282.8 	"/>
	<path class="st10" d="M234,153.6c2,2.1,3,2.7,4.2,2.4c1.2-0.2,2.4,1,6.1,5.6c4.5,5.7,4.6,5.9,2.9,7.6c-1.4,1.5-1.4,1.9,0,3.3
		c0.9,0.8,3.1,2.1,4.9,2.6c3.1,0.9,3.6,1.4,7.4,7.4l4.1,6.5l3.4,0.1c3.3,0.2,3.3,0.2,3.6,2.4c0.2,1.2,0.6,4.3,1,6.9l0.8,4.8
		l-23,38.3l-22.9,38.3l4.4,3l4.5,2.9l1.3,6.8l1.3,6.7l5.8,0.3c5.5,0.3,5.7,0.4,5.9,2.1c0.1,1.1,0.7,8.1,1.3,15.6l1.1,13.6l4.7,7
		l4.5,7.1l-3.2,5.3l-3.2,5.3l-6-0.9c-3.2-0.5-6.2-1.2-6.7-1.5c-0.4-0.3-2.6-7.5-4.8-16.1c-3.8-14.8-4-15.9-3-24.2l1-8.7l-4.6-7.3
		c-5.5-8.8-11.4-15.9-14.8-18c-2.8-1.7-4-3.9-5.8-10.3c-1.1-3.9-1.7-4.7-5.9-7.9l-4.8-3.6l-1.2,2c-2.2,3.4-6,4-12.9,2.1
		c-8-2.3-8.1-2.3-6.4-5.1c1-1.6,3-3,6.5-4.4c2.8-1.1,5-2.2,4.9-2.6c-0.2-0.8-6.9-0.6-13,0.4c-3.2,0.5-7.2,1.2-9.1,1.5
		c-3.1,0.5-3.4,0.6-2.8,2.2c0.5,1.5-0.4,1.8-8.9,3c-15.6,2.3-16.2,2.4-27.3-0.3c-20.4-4.9-25.3-6.4-32.3-10.3l-6.9-3.7l3.2-0.5
		c2-0.3,4.1,0,5.5,0.8c1.3,0.8,4.3,1.7,6.8,2.2s5.6,1.4,6.7,2.2c1.3,0.8,7,1.7,14.8,2.2c12.4,0.8,12.7,0.8,16.5-1.8
		c2.1-1.4,5.1-3.2,6.7-3.9l2.9-1.4l-4.1-1c-5.7-1.5-6.1-1.9-6-6.6c-0.1-4.3-0.1-4.3-3.4-5.8c-2.9-1.2-3.3-1.6-2.8-3
		c0.3-1,1.3-2.1,2.4-2.6c3.1-1.4,4.3-7,1.7-8.5c-5.8-3.5-7-9.9-2.7-13.5c1.8-1.5,2.4-2.5,3-5.5c0.4-2,1-4,1.3-4.5s2.9-0.9,5.6-0.9
		c2.7-0.1,6.7-0.4,8.6-0.8l3.6-0.8l0.8,3.3l0.9,3.2l3.9-0.7c2.6-0.4,4.5-0.2,6.2,0.8c2.3,1.4,2.4,1.4,5.3-2.3c1.6-2,3.3-4,4-4.5
		c0.7-0.6,0.2-0.8-2.4-0.8c-1.8,0-4-0.3-4.7-0.7c-2.7-1.7-7.3-7.7-8.5-11.3c-1.2-3.5-1.1-3.8,0.8-5.1c1.7-1.2,2.1-2.1,2.7-5.9
		c0.8-5.1,0.1-5,8.8-1.4c3.3,1.4,6.7,2.8,7.5,3.1c1.1,0.4,1,1.1-0.7,3.9c-2.1,3.5-1.8,4.6,2.2,7.1c2,1.2,2.3,0.9,5.6-3.1l2.6-3.3
		l-1.8-2.7c-1-1.6-1.7-2.9-1.5-3.1c2.1-3.7,3.8-10.1,3.2-12.6c-0.6-2.9-0.6-3,1.6-4.1c2.5-1.2,3.6-0.8,6.5,2.3
		c2.6,2.8,5.7,3.1,9.4,0.7c2.6-1.5,4.2-1.8,10.4-1.1c4.1,0.4,7.5,0.8,7.6,0.9C231.2,150.8,232.5,152.1,234,153.6z"/>
	<g>
		<path class="st11" d="M25.5,257.5c-3.8,3.4-4.3,5.1-3,9.1c0.7,1.9,1.7,3.8,2.5,4.2c1.8,0.9,13-3,13.7-4.7c0.2-0.6,0.4-2.9,0.3-5
			l-0.1-3.8l-3.7-1.6C31,254,29,254.3,25.5,257.5z"/>
		<path class="st11" d="M71.4,260.5c3.6,1.6,4.4,2.4,5.2,4.7l0.9,2.8l-4.6,1.5l-4.7,1.6l-2.4-4c-2.4-4-2.4-4.1-1.2-6.1
			c0.7-1.2,1.5-2.2,1.8-2.3C66.8,258.7,69,259.5,71.4,260.5z"/>
		<path class="st11" d="M84.9,264.4c-0.8,1.2-0.8,2.5,0.1,5.1c1,3.1,1.4,3.5,3.7,3.7c1.6,0.1,2.5,0.7,2.7,1.7c0.1,0.8,1,2.2,2,3
			s2.1,2.2,2.4,3.1c0.6,1.7,3.8,2.3,5.5,0.9c2-1.6,4.4-5.5,4.5-7.3c0-1.7,0.2-1.6,1.8,0.1c2.3,2.4,4.6,2.1,8.2-1.1
			c4.1-3.6,5.6-7.4,4.2-9.7c-1.6-2.5-7.2-3.6-10-2c-1.9,1.1-3,1.1-5.9,0.1C99.5,260.1,86.8,261.9,84.9,264.4z"/>
		<path class="st11" d="M122.9,276.3c-0.4,0.7-0.3,2.1,0,3.1s0.2,3.7-0.2,6c-0.9,4.6-0.5,5.9,5.8,15.9c4.1,6.4,4.5,6.8,7.3,7
			c5.6,0.2,6.1-0.1,8.1-4.5c1.8-4,6-8,12.2-11.6c4-2.3,1.9-10-2.7-10c-1.3-0.1-3.2-0.8-4.3-1.9c-3.2-3.2-11-5.9-17.2-6.1
			C125.4,274.1,123.8,274.5,122.9,276.3z"/>
	</g>
	<polygon class="st12" points="120.2,312.2 312.9,246.3 291.2,344 130.5,389.8 	"/>
	<polygon class="st8" points="42,282.6 120.2,312.1 130.9,390.4 56.7,361 	"/>
	<path class="st13" d="M358,417"/>
	<path class="st13" d="M152.1,407.2"/>
	<g id="Wheels">
		<g>
			<g>
				<g class="st14">
					<g class="st14">
						<g>
							<defs>
								<path id="SVGID_4_" d="M59.6,345.7l6.8,3.7c-0.2-0.1-0.4-0.2-0.7-0.3c-0.5-0.2-1.1-0.2-1.7-0.1l-6.8-3.7
									c0.6-0.1,1.1,0,1.7,0.1C59.2,345.5,59.4,345.6,59.6,345.7z"/>
							</defs>
							<clipPath id="SVGID_5_">
								<use xlink:href="#SVGID_4_"  style="overflow:visible;"/>
							</clipPath>
							<g class="st15">
								<path class="st16" d="M64.2,349l-6.8-3.7c0.5-0.1,1-0.1,1.5,0.1l6.8,3.7C65.2,349,64.7,349,64.2,349"/>
								<path class="st17" d="M65.7,349.1l-6.8-3.7H59c0.2,0.1,0.4,0.1,0.5,0.2l6.8,3.7c-0.2-0.1-0.4-0.2-0.5-0.2H65.7"/>
								<path class="st18" d="M66.3,349.4l-6.8-3.7c0,0,0.1,0,0.1,0.1l6.8,3.7C66.4,349.4,66.4,349.4,66.3,349.4"/>
							</g>
						</g>
					</g>
					<g>
						<path class="st19" d="M64.2,349c0.6-0.1,1.1,0,1.7,0.1c3.8,1.1,4.6,8.4,1.8,16.1c-2.4,6.7-6.7,11.6-10.3,12.1
							c-0.6,0.1-1.1,0-1.7-0.1c-3.8-1.1-4.6-8.4-1.8-16.1C56.3,354.4,60.6,349.5,64.2,349z"/>
					</g>
					<g class="st14">
						<g>
							<defs>
								<path id="SVGID_6_" d="M55,377l-6.8-3.7c-3.2-1.8-3.8-8.6-1.1-15.9c2.4-6.7,6.7-11.6,10.3-12.1l6.8,3.7
									c-3.6,0.5-7.9,5.4-10.3,12.1C51.2,368.4,51.8,375.3,55,377z"/>
							</defs>
							<clipPath id="SVGID_7_">
								<use xlink:href="#SVGID_6_"  style="overflow:visible;"/>
							</clipPath>
							<g class="st20">
								<path class="st21" d="M55,377l-6.8-3.7c-3.2-1.8-3.8-8.6-1.1-15.9c0-0.1,0-0.1,0.1-0.2l6.8,3.7c0,0.1,0,0.1-0.1,0.2
									C51.2,368.4,51.8,375.3,55,377"/>
								<path class="st22" d="M53.9,361l-6.8-3.7c0.5-1.4,1.1-2.7,1.8-3.9l6.8,3.7C55,358.3,54.4,359.6,53.9,361"/>
								<path class="st23" d="M55.7,357.1l-6.8-3.7c0.5-0.9,1.1-1.8,1.6-2.6l6.8,3.7C56.7,355.2,56.2,356.1,55.7,357.1"/>
								<path class="st24" d="M57.3,354.4l-6.8-3.7c0.5-0.7,1-1.3,1.5-1.9l6.8,3.7C58.2,353.1,57.8,353.7,57.3,354.4"/>
								<path class="st25" d="M58.7,352.6l-6.8-3.7c0.4-0.5,0.9-0.9,1.3-1.3l6.8,3.7C59.6,351.6,59.2,352.1,58.7,352.6"/>
								<path class="st18" d="M60,351.2l-6.8-3.7c0.4-0.4,0.8-0.7,1.2-1l6.8,3.7C60.9,350.5,60.5,350.9,60,351.2"/>
								<path class="st17" d="M61.3,350.3l-6.8-3.7c0.4-0.3,0.8-0.5,1.2-0.7l6.8,3.7C62.1,349.7,61.7,350,61.3,350.3"/>
								<path class="st16" d="M62.5,349.5l-6.8-3.7c0.6-0.3,1.1-0.4,1.6-0.5l6.8,3.7C63.6,349.1,63.1,349.3,62.5,349.5"/>
							</g>
						</g>
					</g>
				</g>
			</g>
		</g>
		<g>
			<g>
				<g class="st14">
					<g class="st14">
						<g>
							<defs>
								<path id="SVGID_8_" d="M290.8,331.2l8.7,4.7c-0.2-0.1-0.5-0.2-0.8-0.3c-0.6-0.2-1.3-0.2-1.9-0.1l-8.7-4.7
									c0.7-0.1,1.3-0.1,1.9,0.1C290.3,331,290.5,331.1,290.8,331.2z"/>
							</defs>
							<clipPath id="SVGID_9_">
								<use xlink:href="#SVGID_8_"  style="overflow:visible;"/>
							</clipPath>
							<g class="st26">
								<path class="st16" d="M296.7,335.5l-8.7-4.7c0.6-0.1,1.2-0.1,1.8,0.1l8.7,4.7C297.9,335.4,297.3,335.4,296.7,335.5"/>
								<path class="st17" d="M298.5,335.6l-8.7-4.7c0.1,0,0.1,0,0.2,0c0.2,0.1,0.4,0.1,0.6,0.2l8.7,4.7c-0.2-0.1-0.4-0.2-0.6-0.2
									C298.6,335.6,298.5,335.6,298.5,335.6"/>
								<path class="st18" d="M299.3,335.9l-8.7-4.7c0.1,0,0.1,0.1,0.2,0.1l8.7,4.7C299.4,335.9,299.3,335.9,299.3,335.9"/>
							</g>
						</g>
					</g>
					<g>
						<path class="st19" d="M296.7,335.5c0.7-0.1,1.3-0.1,1.9,0.1c4.5,1.3,5.4,9.8,2.1,19c-2.8,7.9-7.9,13.6-12.1,14.2
							c-0.7,0.1-1.3,0.1-1.9-0.1c-4.5-1.4-5.4-9.8-2.1-19C287.4,341.8,292.5,336.1,296.7,335.5z"/>
					</g>
					<g class="st14">
						<g>
							<defs>
								<path id="SVGID_10_" d="M285.9,368.4l-8.7-4.7c-3.8-2.1-4.4-10.1-1.3-18.6c2.8-7.9,7.9-13.6,12.1-14.2l8.7,4.7
									c-4.2,0.6-9.3,6.4-12.1,14.2C281.5,358.3,282.1,366.3,285.9,368.4z"/>
							</defs>
							<clipPath id="SVGID_11_">
								<use xlink:href="#SVGID_10_"  style="overflow:visible;"/>
							</clipPath>
							<g class="st27">
								<path class="st21" d="M285.9,368.4l-8.7-4.7c-3.8-2.1-4.4-10.1-1.3-18.6c0-0.1,0-0.1,0.1-0.2l8.7,4.7c0,0.1,0,0.1-0.1,0.2
									C281.5,358.3,282.1,366.3,285.9,368.4"/>
								<path class="st22" d="M284.7,349.5l-8.7-4.7c0.6-1.6,1.3-3.2,2.1-4.6l8.7,4.7C286,346.3,285.3,347.9,284.7,349.5"/>
								<path class="st23" d="M286.7,344.9l-8.7-4.7c0.6-1.1,1.2-2.1,1.9-3.1l8.7,4.7C288,342.8,287.3,343.8,286.7,344.9"/>
								<path class="st24" d="M288.6,341.8l-8.7-4.7c0.6-0.8,1.1-1.5,1.7-2.2l8.7,4.7C289.7,340.3,289.2,341,288.6,341.8"/>
								<path class="st25" d="M290.3,339.6l-8.7-4.7c0.5-0.6,1-1.1,1.5-1.6l8.7,4.7C291.3,338.5,290.8,339.1,290.3,339.6"/>
								<path class="st18" d="M291.9,338.1l-8.7-4.7c0.5-0.4,1-0.8,1.4-1.1l8.7,4.7C292.8,337.3,292.3,337.6,291.9,338.1"/>
								<path class="st17" d="M293.3,336.9l-8.7-4.7c0.5-0.3,1-0.6,1.5-0.9l8.7,4.7C294.3,336.3,293.8,336.6,293.3,336.9"/>
								<path class="st16" d="M294.8,336.1l-8.7-4.7c0.7-0.3,1.3-0.5,1.9-0.6l8.7,4.7C296.1,335.6,295.4,335.8,294.8,336.1"/>
							</g>
						</g>
					</g>
				</g>
			</g>
		</g>
		<g>
			<g>
				<g class="st14">
					<g class="st14">
						<g>
							<defs>
								<path id="SVGID_12_" d="M135.8,371.8l9.1,5c-0.2-0.1-0.5-0.2-0.8-0.3c-0.6-0.2-1.3-0.2-1.9-0.1l-9.1-5
									c0.7-0.1,1.3-0.1,1.9,0.1C135.3,371.5,135.6,371.6,135.8,371.8z"/>
							</defs>
							<clipPath id="SVGID_13_">
								<use xlink:href="#SVGID_12_"  style="overflow:visible;"/>
							</clipPath>
							<g class="st28">
								<path class="st16" d="M142.2,376.3l-9.1-5c0.6-0.1,1.2-0.1,1.8,0.1l9.1,5C143.4,376.2,142.8,376.2,142.2,376.3"/>
								<path class="st17" d="M144,376.3l-9.1-5c0.1,0,0.1,0,0.2,0c0.2,0.1,0.4,0.1,0.6,0.2l9.1,5c-0.2-0.1-0.4-0.2-0.6-0.2
									C144.1,376.4,144,376.4,144,376.3"/>
								<path class="st18" d="M144.8,376.6l-9.1-5c0.1,0,0.1,0.1,0.2,0.1l9.1,5C144.9,376.7,144.8,376.7,144.8,376.6"/>
							</g>
						</g>
					</g>
					<g class="st14">
						<g>
							<defs>
								<path id="SVGID_14_" d="M131.4,409.1l-9.1-5c-3.8-2.1-4.4-10.1-1.3-18.6c2.8-7.9,7.9-13.6,12.1-14.2l9.1,5
									c-4.2,0.6-9.3,6.4-12.1,14.2C127,399.1,127.6,407.1,131.4,409.1z"/>
							</defs>
							<clipPath id="SVGID_15_">
								<use xlink:href="#SVGID_14_"  style="overflow:visible;"/>
							</clipPath>
							<g class="st29">
								<path class="st21" d="M131.4,409.1l-9.1-5c-3.8-2.1-4.4-10.1-1.3-18.6c0-0.1,0-0.1,0.1-0.2l9.1,5c0,0.1,0,0.1-0.1,0.2
									C127,399.1,127.6,407.1,131.4,409.1"/>
								<path class="st22" d="M130.2,390.3l-9.1-5c0.6-1.6,1.3-3.2,2.1-4.6l9.1,5C131.5,387.1,130.8,388.7,130.2,390.3"/>
								<path class="st23" d="M132.2,385.7l-9.1-5c0.6-1.1,1.2-2.1,1.9-3.1l9.1,5C133.5,383.5,132.8,384.6,132.2,385.7"/>
								<path class="st24" d="M134.1,382.6l-9.1-5c0.6-0.8,1.1-1.5,1.7-2.2l9.1,5C135.2,381.1,134.7,381.8,134.1,382.6"/>
								<path class="st25" d="M135.8,380.4l-9.1-5c0.5-0.6,1-1.1,1.5-1.6l9.1,5C136.8,379.3,136.3,379.8,135.8,380.4"/>
								<path class="st18" d="M137.4,378.9l-9.1-5c0.5-0.4,1-0.8,1.4-1.1l9.1,5C138.3,378,137.8,378.4,137.4,378.9"/>
								<path class="st17" d="M138.8,377.7l-9.1-5c0.5-0.3,1-0.6,1.5-0.9l9.1,5C139.8,377.1,139.3,377.4,138.8,377.7"/>
								<path class="st16" d="M140.3,376.9l-9.1-5c0.7-0.3,1.3-0.5,1.9-0.6l9.1,5C141.6,376.3,140.9,376.6,140.3,376.9"/>
							</g>
						</g>
					</g>
					<g>
						<path class="st19" d="M142.2,376.3c0.7-0.1,1.3-0.1,1.9,0.1c4.5,1.3,5.4,9.8,2.1,19c-2.8,7.9-7.9,13.6-12.1,14.2
							c-0.7,0.1-1.3,0.1-1.9-0.1c-4.5-1.3-5.4-9.8-2.1-19C132.9,382.6,138,376.8,142.2,376.3z"/>
					</g>
				</g>
			</g>
		</g>
	</g>
	<g>
		<circle class="st30" cx="364.8" cy="149.2" r="10"/>
		<circle cx="362.6" cy="151.5" r="7.8"/>
	</g>
	<g>
		<circle class="st30" cx="243.1" cy="203.4" r="8.9"/>
		<circle cx="244.9" cy="205.3" r="6.9"/>
	</g>
	<g>
		<circle class="st30" cx="145" cy="278.6" r="9.2"/>
		<circle cx="147.4" cy="278" r="7.1"/>
	</g>
	<g>
		<circle class="st30" cx="319.3" cy="147.7" r="10"/>
		<circle cx="317" cy="149.9" r="7.8"/>
	</g>
	<g>
		<circle class="st30" cx="199" cy="197.5" r="8.9"/>
		<circle cx="200.8" cy="199.4" r="6.9"/>
	</g>
	<g>
		<circle class="st30" cx="102.9" cy="258.7" r="9.2"/>
		<circle cx="105.3" cy="258.2" r="7.1"/>
	</g>
</g>
<g id="Title" class="st0">
	<text transform="matrix(1 0 0 1 103.0534 502.9939)" class="st31 st32 st33">ggcart</text>
</g>
</svg>
