<?xml version="1.0" encoding="utf-8"?>
<!-- Generator: Adobe Illustrator 23.0.3, SVG Export Plug-In . SVG Version: 6.00 Build 0)  -->
<svg version="1.1" xmlns="http://www.w3.org/2000/svg" xmlns:xlink="http://www.w3.org/1999/xlink" x="0px" y="0px"
	 viewBox="0 0 735 852" style="enable-background:new 0 0 735 852;" xml:space="preserve">
<style type="text/css">
	.st0{clip-path:url(#SVGID_2_);}
	.st1{fill:#C8EAF5;}
	.st2{opacity:0.25;fill:url(#SVGID_3_);enable-background:new    ;}
	.st3{fill:#29ABE2;}
	.st4{fill:none;stroke:#B0A690;stroke-width:10;stroke-miterlimit:10;}
	.st5{fill:#3B4D81;}
	.st6{fill:#DAD7C5;}
	.st7{fill:#C6CDC7;}
	.st8{fill:#54C2BA;}
	.st9{fill:#0071BC;}
	.st10{fill:#B0A690;}
	.st11{fill:none;stroke:#000000;stroke-miterlimit:10;}
	.st12{enable-background:new    ;}
	.st13{clip-path:url(#SVGID_5_);enable-background:new    ;}
	.st14{fill:#908E82;}
	.st15{fill:#8C8A7E;}
	.st16{fill:#87857A;}
	.st17{fill:#BEBCAC;}
	.st18{clip-path:url(#SVGID_7_);enable-background:new    ;}
	.st19{fill:#717066;}
	.st20{fill:#76746A;}
	.st21{fill:#7A786E;}
	.st22{fill:#7E7D72;}
	.st23{fill:#838176;}
	.st24{clip-path:url(#SVGID_9_);enable-background:new    ;}
	.st25{clip-path:url(#SVGID_11_);enable-background:new    ;}
	.st26{clip-path:url(#SVGID_13_);enable-background:new    ;}
	.st27{clip-path:url(#SVGID_15_);enable-background:new    ;}
	.st28{fill:#FFFFFF;}
	.st29{fill:#1B1464;}
</style>
<g id="Hex">
	<title></title>
	<g>
		<defs>
			<polygon id="SVGID_1_" points="369.5,9.1 728.2,216.2 728.2,638.3 369.5,846.7 2.8,638.3 2.8,216.2 			"/>
		</defs>
		<clipPath id="SVGID_2_">
			<use xlink:href="#SVGID_1_"  style="overflow:visible;"/>
		</clipPath>
		<g class="st0">
			<circle class="st1" cx="384.5" cy="439.1" r="442.1"/>
			
				<linearGradient id="SVGID_3_" gradientUnits="userSpaceOnUse" x1="366.25" y1="972.69" x2="367.55" y2="509.16" gradientTransform="matrix(1 0 0 -1 0 852)">
				<stop  offset="0" style="stop-color:#FFFFFF;stop-opacity:0.83"/>
				<stop  offset="0.56" style="stop-color:#FFFFFF;stop-opacity:0.37"/>
				<stop  offset="1" style="stop-color:#FFFFFF;stop-opacity:0"/>
			</linearGradient>
			<ellipse class="st2" cx="366.9" cy="107.5" rx="315.2" ry="234.6"/>
		</g>
	</g>
	<path class="st3" d="M705.6,197.9L427.8,37.5L367.5,2.7l-60.3,34.8L29.4,197.9L0.1,214.8v424.2L29.4,656l281.3,162.4l56.9,32.8
		l56.9-32.8L705.6,656l29.3-16.9V214.8L705.6,197.9z M705.6,623.2L367.5,818.4L29.4,623.2V232.7L367.5,37.5l0,0l338.1,195.2V623.2z"
		/>
</g>
<g id="Graphic">
	<polyline class="st4" points="278.5,375 281.4,359.6 302.3,351.8 404,373.3 	"/>
	<path class="st5" d="M529.4,186.4c-0.4,0-5.8,2.2-7.6,3.1l-1.2,0.6l1.4-0.9c1.4-1,1.7-1.4,1.3-2.4c-0.1-0.4-0.1-0.9,0-1.1
		c0.1-0.3,0.2-0.9,0.1-1.2c-0.1-0.4,0.2-2.2,0.7-4.1c0.6-2.4,0.7-3.5,0.5-3.8c-0.5-0.6-2-0.6-3.2-0.1c-0.5,0.2-1.7,0.7-2.5,1
		c-2.6,1-3.6,1.4-4.2,1.6c-0.3,0.1-1.5,0.5-2.7,0.9c-1.8,0.6-2.1,0.7-2.2,1.2c0,0.3-0.1,0.5-0.2,0.4c-0.1-0.1-0.5-0.3-0.8-0.6
		c-0.5-0.4-0.9-0.5-1.4-0.3c-0.9,0.3-3.6,0.6-5.8,0.6c-1,0-3.2,0-4.9,0c-3,0-9.4-0.2-10.8-0.4c-0.4,0-1.3-0.3-2-0.7
		c-0.8-0.4-1.6-0.5-2-0.4c-0.3,0.1-1.1,0-1.7-0.3c-1.1-0.5-1.2-0.5-2.3,0.2c-0.6,0.4-1.4,0.7-1.7,0.7c-0.3,0-2.2,0.6-4.1,1.3
		c-3.6,1.3-3.6,1.3-5.1,1c-0.8-0.2-1.6-0.3-1.7-0.2c-0.1,0-1.3-0.2-2.6-0.5c-2.2-0.5-2.5-0.5-3.9,0c-1,0.4-2.2,1.1-3.5,2.1
		c-1.9,1.5-2,1.5-2.7,1.4c-1.2-0.3-2.6-0.1-4.6,0.6c-1.7,0.6-1.9,0.8-3.2,2.6c-1.3,1.8-1.5,2-3,2.5c-1.5,0.6-1.7,0.7-2.5,2
		c-0.5,0.8-0.8,1.5-0.7,1.7c0.1,0.2-0.2,0.2-0.8-0.1c-0.9-0.4-1-0.4-2.9,0.4l-2,0.8l-0.9,1.9l-0.9,1.9l-0.8-0.3
		c-0.9-0.4-2.9-0.4-3.9-0.1c-0.4,0.1-0.8,0.7-1,1.4c-0.3,0.7-0.8,1.4-1.2,1.6c-0.9,0.5-4.1,3.8-4.2,4.3c0,0.2-0.5,0.4-1,0.5
		c-0.7,0.1-1,0.4-1.4,1c-0.5,0.7-0.6,0.8-1.8,0.7c-2.1-0.1-2.6,0.2-3.2,2c-0.3,0.8-0.4,2-0.3,2.5c0.1,0.5,0.1,1.9,0,3
		c-0.2,1.5-0.4,2.1-0.8,2.4c-0.8,0.6-1.5,2.4-1.2,3.7c0.2,1.3,0,1.9-0.9,2c-0.9,0.1-1.4,0.8-1.1,1.6c0.3,0.8-0.4,2.5-2,4.4
		c-0.9,1.1-1.3,1.4-3.8,2.6c-1.6,0.8-3,1.5-3.1,1.8c-0.2,0.3,0,1.4,0.5,3.4c1.3,4.9,2.9,11,3,11.4c0.1,0.2-0.1,0.5-0.4,0.8
		c-0.3,0.2-0.7,1.3-0.9,2.3c-0.2,1-1.1,5.3-2,9.6c-0.9,4.3-2,9.6-2.5,11.8l-0.8,4l1.8,8c2.2,9.9,2.7,11.5,3.2,11.8
		c0.3,0.1,1,0.1,1.8-0.1c0.7-0.2,1.3-0.2,1.4-0.1c0.3,0.7,2.3,9.3,2.2,9.6c0,0.2-0.4,0.6-0.7,0.9c-0.4,0.3-1.9,3.1-3.3,6.1
		c-2.9,6.1-4.2,7.9-6,8.3c-1.3,0.3-2.5,1.6-3.1,3.4c-1.2,3.5-2.4,9-2.2,9.8c0.1,0.8,0.4,1,1.6,1.6c1,0.5,2.1,0.8,3.4,0.9
		c1.8,0.1,1.9,0.1,2.2,0.9c0.2,0.5,0.4,0.9,0.6,1c0.2,0.1,0.4,0.7,0.5,1.7c0.1,0.8,0.4,2,0.6,2.7c0.5,1.3,0.5,1.6-0.4,2.4
		c-0.3,0.3-1,1.5-1.4,2.7c-0.7,1.8-0.9,2.3-1.9,3c-2,1.5-4.4,4.1-5.3,5.8c-0.5,0.9-1,1.7-1.2,1.8c-0.7,0.3-1.8,2-1.7,2.8
		c0.1,0.6-0.1,0.7-1,1.1c-0.6,0.2-1.6,0.8-2.3,1.4c-1.5,1.2-4,3.9-4.3,4.5c-0.4,1.1-0.6,7.2-0.3,8.8c0.1,0.9,0.2,2.3,0,3.1
		c-0.2,1.2-0.2,1.6,0.3,2.7c0.3,0.7,0.8,1.4,1,1.4c0.8,0.2,1.9-0.5,2.3-1.4c0.3-0.6,1.2-1.4,2.5-2.4c1.9-1.4,2.2-1.5,3.4-1.7
		c0.7-0.1,1.5-0.3,1.7-0.4c0.2-0.2,0.7-0.2,1.1-0.1c0.4,0.1,1.3,0.1,2-0.1c0.9-0.2,1.3-0.2,1.6,0.1c0.2,0.2,0.8,0.5,1.4,0.6
		c0.7,0.1,1.2,0.4,1.5,0.9c0.3,0.5,0.7,0.7,1.3,0.7c0.6,0,1,0.2,1.3,0.6c0.6,0.9,1.1,1.1,1.8,0.9c0.5-0.2,0.6-0.1,0.5,0.3
		c-0.1,0.7,1,1.9,4,4.5c1.9,1.6,2.4,2,3.2,1.9c0.5,0,1.3,0.3,1.8,0.6c0.6,0.4,1.1,0.6,1.5,0.4c0.5-0.2,0.6-0.1,0.7,0.5
		c0.1,0.4,0.7,1.5,1.3,2.5c0.7,1,1.9,2.9,2.8,4.2l1.6,2.5l0.3,2.3c0.2,1.3,0.4,3,0.5,3.8c0.2,1.7,0.7,2.2,1.8,1.9
		c0.6-0.1,0.7-0.1,0.8,0.6c0.1,0.4-0.2,1.2-0.5,1.8c-0.3,0.6-0.5,1.3-0.4,1.6c0.1,0.3-0.1,1.1-0.4,1.7c-0.6,1.2-0.9,3.5-0.6,4.3
		c0.1,0.3,0.5,0.6,1,0.8c1,0.4,1.2,0.8,0.8,1.3c-0.7,0.6,0.6,2.4,1.8,2.4l0.7,0l-0.1,1.5c0,0.8-0.3,1.7-0.5,1.9
		c-0.8,0.8-0.5,1.5,0.9,2.8c1.1,1,1.5,1.2,2,1c0.6-0.2,0.7-0.3,1.5-4.5l0.2-0.7l0.9,0.4c0.5,0.2,1.1,0.6,1.5,0.9
		c0.7,0.6,1.7,0.4,2.5-0.6c0.5-0.6,0.6-0.6,1.3,0.2c0.6,0.7,0.9,1.2,1.2,2.5c0.3,1.2,0.5,1.7,0.8,1.8c0.2,0,0.3,0.2,0.3,0.4
		c0,0.2,0.2,0.5,0.5,0.7c0.5,0.3,0.5,0.4,0.2,1.1c-0.2,0.4-0.2,1.2-0.1,1.8c0.2,0.8,0.4,1.1,1.1,1.4c0.5,0.2,1,0.6,1.1,1.1
		c0.1,0.4,0.5,0.8,0.7,0.8c0.4,0.2,1.7,3.3,1.7,4.3c0.1,3.2,0.3,4.6,0.6,5.1c0.3,0.5,0.3,0.6,0,0.6c-0.3,0-0.6,0.5-0.9,1.2
		c-0.3,0.6-0.7,1.3-1.1,1.5c-1,0.5-0.5,1.5,2,3.7c1.3,1.1,2.7,2.2,3.2,2.4c2.1,0.8,2,3-0.1,7.5c-0.9,1.9-1.4,3.3-1.3,3.8
		c0.2,1.3-1.3,3.1-3,3.7c-0.7,0.2-1.6,0.4-1.9,0.3c-1.1-0.1-3.2,0.8-3.8,1.7c-0.3,0.4-0.5,1-0.5,1.3c0,0.3-0.3,0.6-0.8,0.8
		c-0.6,0.2-1.1,0.7-1.5,1.6c-0.4,0.7-1.1,1.8-1.6,2.5c-0.7,0.9-0.8,1.4-0.6,1.9c0.2,0.4,0.1,0.7-0.1,0.8c-0.2,0.1-0.7,0.9-1.2,1.7
		c-0.9,1.8-1.5,2.4-2.3,2.7c-0.7,0.3-1.1,0.9-0.8,1.4c0.3,0.9-0.1,2.9-1,4.1c-0.5,0.7-0.8,1.6-0.8,1.9c0,0.4-0.2,0.8-0.6,1
		s-0.5,0.5-0.5,0.8c0.2,1,2,3,3.3,3.8l1.4,0.8l1.2-0.7c1.1-0.7,1.3-0.7,2.2-0.4c1,0.3,1.1,0.3,2.3-0.5c1-0.6,1.6-0.8,2.6-1
		c1.2-0.2,1.5-0.3,2.5-1.3c0.6-0.6,1.6-1.8,2.3-2.8s1.9-2.3,2.8-3c1.2-1,1.7-1.5,1.7-2.1c0.1-0.8,1.2-1.6,2.7-1.9
		c0.9-0.2,1.1-0.4,2.2-2c0.7-1,1.3-2.2,1.3-2.8c0.1-0.5,0.3-1.1,0.5-1.1c0.2-0.1,0.9-1.1,1.6-2.2c1.1-1.9,1.3-2.1,2.4-2.4
		c1-0.3,1.3-0.6,1.6-1.1c0.2-0.4,0.7-1,1.2-1.2c0.4-0.3,1-0.7,1.2-1c0.7-0.9,5.1-3,6.5-3.1c1.3-0.1,3.7,0.1,5,0.4
		c0.4,0.1,1.1,0.1,1.6,0.1c1.5-0.2,3.5,0.6,6.2,2.3c2,1.3,2.9,1.7,3.6,1.7c0.5,0,1.3,0.1,1.6,0.3c0.3,0.2,1.4,0.3,2.5,0.4
		c3.8,0.1,5.4,0.8,6.4,2.7c0.7,1.4,2.3,2.1,3.9,1.8c1.9-0.3,5.6,1.1,7.1,2.7c0.5,0.5,1.3,1.2,1.8,1.6c0.8,0.5,1.1,0.5,2,0.2
		c0.8-0.3,1.1-0.6,1.2-1c0-0.3,0-0.7-0.2-0.8c-0.1-0.1,0-0.3,0.4-0.4c0.5-0.2,0.7-0.1,0.9,0.3c0.3,0.8,1.7,1.8,2.9,2
		c1.4,0.3,3.8-0.6,4.2-1.5c0.3-0.6,0.2-0.8-0.2-1.2c-0.9-1-0.7-1.6,0.3-0.7c0.7,0.7,2,0.5,3-0.6c0.4-0.5,1.1-1.1,1.5-1.3
		c1-0.6,1.5-2.2,1.1-3.3c-0.2-0.6-0.2-0.9,0.2-1.2c0.3-0.2,0.7-0.3,0.8-0.2c0.5,0.2,1.6-0.2,2-0.9c0.2-0.3,0.7-0.7,1-0.8
		c1.1-0.4,1.9-1.2,2.2-2.1c0.2-0.6,0.5-0.9,0.9-0.9c0.5,0,0.6,0.1,0.6,0.9c0,0.7-0.1,1.1-0.7,1.5c-0.5,0.3-0.7,0.7-0.6,1.1
		c0.1,0.5,0,0.7-0.5,0.7c-0.3,0-1.3,0.2-2.2,0.5c-1.3,0.4-1.7,0.6-2,1.1c-0.3,0.5-0.3,0.8-0.1,1.2c0.5,0.6,2.9,0.9,5.3,0.6
		c1.1-0.1,2.4-0.2,3-0.1c0.7,0.1,1.5,0,2.9-0.5c2-0.7,2.6-1.2,3.2-2.4c0.4-0.7,0.4-0.7,0.5-0.2c0.3,0.8,2.2,1.4,4.9,1.7l2.5,0.3
		l3.5-1.3l3.5-1.3l1.7,1.3c0.9,0.7,2.3,1.9,3,2.6c1,1.1,1.6,1.4,2.8,1.7c1.7,0.4,2.3,0.1,2.4-0.8c0.1-0.5,0.2-0.4,1.8,1
		c1,1,2,1.7,2.4,1.7c0.5,0,0.7,0.2,0.8,0.8c0.1,0.6,0.4,0.8,1.5,1.2c1.1,0.4,1.4,0.5,1.4,1.2c0.1,0.5,0.3,0.9,0.6,1.1
		c0.3,0.2,0.9,0.7,1.4,1.1c0.8,0.8,1,0.8,2.1,0.5c1.6-0.5,3.4-2.4,3-3.2c-0.4-1-1.6-1.6-2.7-1.2l-0.9,0.3l0.8-1.2
		c0.4-0.6,0.7-1.4,0.6-1.6c-0.3-0.7-0.1-0.8,1.3-0.9c1.2,0,1.3-0.1,2-0.8c0.8-0.8,1-0.9,4.6-1.1c1.3-0.1,2.6-0.3,3-0.5
		c0.6-0.3,0.7-0.2,1,0.4c0.2,0.4,0.7,0.7,1.1,0.8c0.4,0.1,0.8,0.4,0.9,0.7c0.3,0.8,2,1.4,3.5,1.2c1-0.1,1.4,0,1.8,0.5
		c0.3,0.3,1,0.8,1.6,1c0.8,0.2,1.1,0.5,1.2,1c0.1,0.5,0.3,0.8,1,1c0.5,0.2,1.3,0.6,1.9,1c0.6,0.4,1.5,0.8,2,1
		c0.6,0.1,1.2,0.4,1.5,0.7c0.6,0.6,1.5,0.4,2.1-0.6c0.3-0.4,0.7-0.9,1-1.1c0.4-0.3,0.5-0.8,0.4-1.7c-0.1-1.1,0.1-1.5,0.6-2.1
		c0.4-0.4,0.8-1.2,0.9-1.8c0.2-1.1,0.3-1.2,5.8-5.4c1.1-0.8,2.1-1.7,2.3-2c0.4-0.7,1-4.1,0.9-4.5c-0.1-0.2-0.8-0.8-1.6-1.5
		c-0.8-0.6-1.4-1.2-1.5-1.2s0.3-0.2,0.6-0.4c0.5-0.3,0.6-0.5,0.4-1.1c-0.4-1.4-1.2-1.6-5.6-1.3l-4.1,0.3l-3.4,1.4
		c-3.2,1.3-3.4,1.3-4.3,1.1c-0.5-0.2-1.2-0.2-1.7,0c-0.5,0.2-0.8,0.2-0.8,0c0-0.5-1.4-1.7-2.3-2c-0.5-0.1-1.2-0.2-1.8-0.1l-0.9,0.1
		l-1.9-2.9c-2.3-3.5-5.9-9-6.7-10.3c-0.3-0.5-0.8-1.2-1-1.4c-0.6-0.7-6.8-3.2-7.7-3.1c-0.4,0-1.5-0.2-2.5-0.6
		c-1.9-0.7-3-0.5-3.5,0.6c-0.2,0.4-0.6,0.8-0.9,1.1c-1.3,1-6.3-2.9-6.1-4.7c0-0.4-0.1-1.1-0.3-1.6c-0.3-0.9-3-5-3.4-5.3
		c-0.1-0.1-1-0.1-1.8,0c-1.6,0.2-1.6,0.2-2.2,1.1c-0.4,0.6-0.8,1-1.2,1c-0.8,0-5.2-2.1-6.3-3.1c-0.5-0.5-1.3-1-1.8-1.2
		c-1.1-0.4-3.1-1.8-4.4-3.2c-0.6-0.7-1.6-1.3-2.4-1.5c-1.1-0.4-1.3-0.5-1.5-1.2c-0.1-0.6-0.5-1-1.3-1.5c-1-0.6-1.2-0.8-1.4-1.9
		c-0.3-1.3-0.2-4.3,0.1-4.4c0.1,0,0.6,0,1,0.2c0.5,0.1,1.1,0.1,1.6,0c0.4-0.2,1-0.1,1.4,0.1c0.4,0.2,0.9,0.2,1.2,0.1
		c0.5-0.2,0.8-0.1,1.9,0.5c0.3,0.1,1.3,0.1,2.4-0.1l2-0.4l2.8-2.2c1.5-1.2,2.9-2.5,3-2.8s0.2-1.2,0.1-2l-0.2-1.5l-1.2-0.5
		c-0.6-0.3-1.7-0.6-2.3-0.8c-0.6-0.2-1.1-0.5-1-0.6c0.1-0.1,0.7,0,1.4,0.3c0.7,0.3,1.6,0.6,1.9,0.6c1,0.1,4-1.1,5.2-2.1
		c0.8-0.7,1.2-0.8,1.8-0.8c0.5,0,1-0.1,1.2-0.3c0.5-0.4,1-2.7,0.8-4.2c-0.1-0.7,0-1.6,0.1-1.9c0.1-0.4,0.2-1.3,0.1-2.1
		c-0.1-0.8-0.1-1.5,0-1.5s0.5,0.8,1,1.7c1,2.2,2.2,3.5,3.2,3.3c0.8-0.2,0.9-0.5,1-3.5c0-1.6-0.1-2.9-0.4-3.7l-0.5-1.3l0.9-0.5
		c1.3-0.7,1.4-1.3,0.3-2.6c-0.5-0.6-1.4-1.9-2-2.9c-0.8-1.3-1.5-2.1-2.5-2.8c-1.3-0.9-1.4-1-1.7-2.5c-0.3-1.2-0.3-1.9-0.1-2.7
		c0.5-1.5,0.5-2.6,0.1-3.6c-0.5-1.2,0.1-1.4,2-0.5c2.4,1.1,3,0.6,2.4-2c-0.3-1.4-0.4-1.5-1.3-1.8c-2.4-0.8-5.6-2.8-6.6-4
		c-0.5-0.6-1.2-1.2-1.7-1.5c-1.6-0.9-1.8-1-2-2.2c-0.2-1-0.2-1.2,0.2-1.2c0.7-0.1,1.1-1.1,0.7-2.1c-0.2-0.5-0.9-1.4-1.6-2.1
		c-0.7-0.7-1.3-1.3-1.2-1.3c0.2-0.1,2.7,1.1,4.2,2c0.8,0.5,3,2,5,3.5c3,2.2,3.7,2.6,4.2,2.4c1-0.4,1-1.6,0-4.2
		c-0.6-1.4-0.8-2.4-0.8-3.1c0-0.9,0-1.1-1.3-2.5c-1.4-1.7-1.6-2.2-1.1-3.8c0.2-0.6,0.3-1.2,0.2-1.4c-0.1-0.2,0.1-0.9,0.4-1.6
		c0.5-1,0.5-1.4,0.1-3.4c-0.3-1.5-0.7-2.5-1.1-3.1c-0.5-0.7-0.6-1.1-0.5-2.4c0-0.8,0-1.8-0.1-2c-0.1-0.4,0.2-0.6,1.6-1.5
		c1.7-1,1.8-1.1,1.9-2c0.1-1.9-0.8-2.8-2.3-2.5c-0.6,0.1-0.7,0.1-1.7-2.1c-1.6-3.5-3.7-9.2-7.6-20.6c-4.4-13-5.3-16.1-9.7-34
		c-2-8.2-2.2-8.8-3.5-15.3c-0.7-3.4-1.4-7-1.6-7.9c-0.2-0.9-0.5-2.4-0.7-3.5c-2.8-13.3-3.5-17.3-4.3-23.3c-0.5-3.8-1.1-8-1.2-9.2
		c-0.4-2.7-0.6-4.4-0.8-5.6c-0.1-0.5-0.3-2.1-0.5-3.6c-0.7-5.1-0.9-7.1-1.4-12.2C530.2,187.6,530,186.4,529.4,186.4z M562,393.4
		c-0.3,0.7-0.3,0.7-1.9,0.1c-0.8-0.3-1.5-0.4-1.9-0.2c-0.3,0.1-1,0.2-1.5,0c-0.5-0.2-1.3-0.2-1.7,0c-1,0.4-1.2,0.3-1.2-0.7
		c0-1.8-2.6-2.5-6.1-1.6c-4.3,1-6.3,2.1-9.2,4.8c-2.6,2.6-8.8,3.4-11.4,1.6c-1.3-0.9-1.2-1.6,0.1-2.8c0.6-0.5,1.2-1.2,1.3-1.6
		c0.1-0.5,0.5-0.8,1.3-1.1c0.6-0.2,2.3-1.2,3.8-2.1c2.4-1.5,2.8-1.7,3.5-1.6c0.5,0.1,1.4-0.1,2.6-0.6c1.4-0.6,1.9-0.7,2.8-0.5
		c0.7,0.1,1.5,0.1,2.3-0.3c0.7-0.3,1.4-0.4,1.5-0.3c0.4,0.4,4.3,0.2,5.5-0.2c1.1-0.3,1.2-0.4,1.1-1c-0.1-0.3-0.3-0.7-0.5-0.8
		c-0.9-0.4-0.4-0.6,1.1-0.4c1.7,0.2,2.2,0.6,2.4,1.7c0.1,0.9,1.1,1.9,1.8,1.9c0.3,0,0.7,0.3,1,0.9c0.3,0.5,0.8,1,1.1,1.2
		C561.5,390.7,562.5,392.3,562,393.4z M543.5,471.9c-0.3,0.4-0.5,0.2-0.2-0.3c0.2-0.3,0.3-0.3,0.4-0.2
		C543.7,471.5,543.6,471.8,543.5,471.9z"/>
	<polyline class="st4" points="407.4,372.7 396.7,381.8 395,393.3 	"/>
	<polygon class="st6" points="278.5,375 399.9,393.3 378.4,490.2 252.5,521 	"/>
	<polygon class="st7" points="278.5,375 259,521 143.3,507.5 129.9,429.8 	"/>
	<path class="st8" d="M321,300.6c2,2.1,3,2.7,4.2,2.4c1.2-0.2,2.4,1,6.1,5.6c4.5,5.7,4.6,5.9,2.9,7.6c-1.4,1.5-1.4,1.9,0,3.3
		c0.9,0.8,3.1,2.1,4.9,2.6c3.1,0.9,3.6,1.4,7.4,7.4l4.1,6.5l3.4,0.1c3.3,0.2,3.3,0.2,3.6,2.4c0.2,1.2,0.6,4.3,1,6.9l0.8,4.8
		l-23,38.3l-22.9,38.3l4.4,3l4.5,2.9l1.3,6.8l1.3,6.7l5.8,0.3c5.5,0.3,5.7,0.4,5.9,2.1c0.1,1.1,0.7,8.1,1.3,15.6l1.1,13.6l4.7,7
		l4.5,7.1l-3.2,5.3l-3.2,5.3l-6-0.9c-3.2-0.5-6.2-1.2-6.7-1.5c-0.4-0.3-2.6-7.5-4.8-16.1c-3.8-14.8-4-15.9-3-24.2l1-8.7l-4.6-7.3
		c-5.5-8.8-11.4-15.9-14.8-18c-2.8-1.7-4-3.9-5.8-10.3c-1.1-3.9-1.7-4.7-5.9-7.9l-4.8-3.6l-1.2,2c-2.2,3.4-6,4-12.9,2.1
		c-8-2.3-8.1-2.3-6.4-5.1c1-1.6,3-3,6.5-4.4c2.8-1.1,5-2.2,4.9-2.6c-0.2-0.8-6.9-0.6-13,0.4c-3.2,0.5-7.2,1.2-9.1,1.5
		c-3.1,0.5-3.4,0.6-2.8,2.2c0.5,1.5-0.4,1.8-8.9,3c-15.6,2.3-16.2,2.4-27.3-0.3c-20.4-4.9-25.3-6.4-32.3-10.3l-6.9-3.7l3.2-0.5
		c2-0.3,4.1,0,5.5,0.8c1.3,0.8,4.3,1.7,6.8,2.2c2.5,0.5,5.6,1.4,6.7,2.2c1.3,0.8,7,1.7,14.8,2.2c12.4,0.8,12.7,0.8,16.5-1.8
		c2.1-1.4,5.1-3.2,6.7-3.9l2.9-1.4l-4.1-1c-5.7-1.5-6.1-1.9-6-6.6c-0.1-4.3-0.1-4.3-3.4-5.8c-2.9-1.2-3.3-1.6-2.8-3
		c0.3-1,1.3-2.1,2.4-2.6c3.1-1.4,4.3-7,1.7-8.5c-5.8-3.5-7-9.9-2.7-13.5c1.8-1.5,2.4-2.5,3-5.5c0.4-2,1-4,1.3-4.5
		c0.3-0.5,2.9-0.9,5.6-0.9c2.7-0.1,6.7-0.4,8.6-0.8l3.6-0.8l0.8,3.3l0.9,3.2l3.9-0.7c2.6-0.4,4.5-0.2,6.2,0.8
		c2.3,1.4,2.4,1.4,5.3-2.3c1.6-2,3.3-4,4-4.5c0.7-0.6,0.2-0.8-2.4-0.8c-1.8,0-4-0.3-4.7-0.7c-2.7-1.7-7.3-7.7-8.5-11.3
		c-1.2-3.5-1.1-3.8,0.8-5.1c1.7-1.2,2.1-2.1,2.7-5.9c0.8-5.1,0.1-5,8.8-1.4c3.3,1.4,6.7,2.8,7.5,3.1c1.1,0.4,1,1.1-0.7,3.9
		c-2.1,3.5-1.8,4.6,2.2,7.1c2,1.2,2.3,0.9,5.6-3.1l2.6-3.3l-1.8-2.7c-1-1.6-1.7-2.9-1.5-3.1c2.1-3.7,3.8-10.1,3.2-12.6
		c-0.6-2.9-0.6-3,1.6-4.1c2.5-1.2,3.6-0.8,6.5,2.3c2.6,2.8,5.7,3.1,9.4,0.7c2.6-1.5,4.2-1.8,10.4-1.1c4.1,0.4,7.5,0.8,7.6,0.9
		C318.2,297.8,319.5,299.1,321,300.6z"/>
	<g>
		<path class="st9" d="M112.5,404.5c-3.8,3.4-4.3,5.1-3,9.1c0.7,1.9,1.7,3.8,2.5,4.2c1.8,0.9,13-3,13.7-4.7c0.2-0.6,0.4-2.9,0.3-5
			l-0.1-3.8l-3.7-1.6C118,401,116,401.3,112.5,404.5z"/>
		<path class="st9" d="M158.4,407.5c3.6,1.6,4.4,2.4,5.2,4.7l0.9,2.8l-4.6,1.5l-4.7,1.6l-2.4-4c-2.4-4-2.4-4.1-1.2-6.1
			c0.7-1.2,1.5-2.2,1.8-2.3C153.8,405.7,156,406.5,158.4,407.5z"/>
		<path class="st9" d="M171.9,411.4c-0.8,1.2-0.8,2.5,0.1,5.1c1,3.1,1.4,3.5,3.7,3.7c1.6,0.1,2.5,0.7,2.7,1.7c0.1,0.8,1,2.2,2,3
			s2.1,2.2,2.4,3.1c0.6,1.7,3.8,2.3,5.5,0.9c2-1.6,4.4-5.5,4.5-7.3c0-1.7,0.2-1.6,1.8,0.1c2.3,2.4,4.6,2.1,8.2-1.1
			c4.1-3.6,5.6-7.4,4.2-9.7c-1.6-2.5-7.2-3.6-10-2c-1.9,1.1-3,1.1-5.9,0.1C186.5,407.1,173.8,408.9,171.9,411.4z"/>
		<path class="st9" d="M209.9,423.3c-0.4,0.7-0.3,2.1,0,3.1c0.3,1,0.2,3.7-0.2,6c-0.9,4.6-0.5,5.9,5.8,15.9c4.1,6.4,4.5,6.8,7.3,7
			c5.6,0.2,6.1-0.1,8.1-4.5c1.8-4,6-8,12.2-11.6c4-2.3,1.9-10-2.7-10c-1.3-0.1-3.2-0.8-4.3-1.9c-3.2-3.2-11-5.9-17.2-6.1
			C212.4,421.1,210.8,421.5,209.9,423.3z"/>
	</g>
	<polygon class="st10" points="207.2,459.2 399.9,393.3 378.2,491 217.5,536.8 	"/>
	<polygon class="st6" points="129,429.6 207.2,459.1 217.9,537.4 143.7,508 	"/>
	<path class="st11" d="M445,564"/>
	<path class="st11" d="M239.1,554.2"/>
	<g id="Wheels">
		<g>
			<g>
				<g class="st12">
					<g class="st12">
						<defs>
							<path id="SVGID_4_" class="st12" d="M146.6,492.7l6.8,3.7c-0.2-0.1-0.4-0.2-0.7-0.3c-0.5-0.2-1.1-0.2-1.7-0.1l-6.8-3.7
								c0.6-0.1,1.1,0,1.7,0.1C146.2,492.5,146.4,492.6,146.6,492.7z"/>
						</defs>
						<clipPath id="SVGID_5_">
							<use xlink:href="#SVGID_4_"  style="overflow:visible;"/>
						</clipPath>
						<g class="st13">
							<path class="st14" d="M151.2,496l-6.8-3.7c0.5-0.1,1-0.1,1.5,0.1l6.8,3.7C152.2,496,151.7,496,151.2,496"/>
							<path class="st15" d="M152.7,496.1l-6.8-3.7c0,0,0.1,0,0.1,0c0.2,0.1,0.4,0.1,0.5,0.2l6.8,3.7c-0.2-0.1-0.4-0.2-0.5-0.2
								C152.8,496.1,152.7,496.1,152.7,496.1"/>
							<path class="st16" d="M153.3,496.4l-6.8-3.7c0,0,0.1,0,0.1,0.1l6.8,3.7C153.4,496.4,153.4,496.4,153.3,496.4"/>
						</g>
					</g>
					<g>
						<path class="st17" d="M151.2,496c0.6-0.1,1.1,0,1.7,0.1c3.8,1.1,4.6,8.4,1.8,16.1c-2.4,6.7-6.7,11.6-10.3,12.1
							c-0.6,0.1-1.1,0-1.7-0.1c-3.8-1.1-4.6-8.4-1.8-16.1C143.3,501.4,147.6,496.5,151.2,496z"/>
					</g>
					<g class="st12">
						<defs>
							<path id="SVGID_6_" class="st12" d="M142,524l-6.8-3.7c-3.2-1.8-3.8-8.6-1.1-15.9c2.4-6.7,6.7-11.6,10.3-12.1l6.8,3.7
								c-3.6,0.5-7.9,5.4-10.3,12.1C138.2,515.4,138.8,522.3,142,524z"/>
						</defs>
						<clipPath id="SVGID_7_">
							<use xlink:href="#SVGID_6_"  style="overflow:visible;"/>
						</clipPath>
						<g class="st18">
							<path class="st19" d="M142,524l-6.8-3.7c-3.2-1.8-3.8-8.6-1.1-15.9c0-0.1,0-0.1,0.1-0.2l6.8,3.7c0,0.1,0,0.1-0.1,0.2
								C138.2,515.4,138.8,522.3,142,524"/>
							<path class="st20" d="M140.9,508l-6.8-3.7c0.5-1.4,1.1-2.7,1.8-3.9l6.8,3.7C142,505.3,141.4,506.6,140.9,508"/>
							<path class="st21" d="M142.7,504.1l-6.8-3.7c0.5-0.9,1.1-1.8,1.6-2.6l6.8,3.7C143.7,502.2,143.2,503.1,142.7,504.1"/>
							<path class="st22" d="M144.3,501.4l-6.8-3.7c0.5-0.7,1-1.3,1.5-1.9l6.8,3.7C145.2,500.1,144.8,500.7,144.3,501.4"/>
							<path class="st23" d="M145.7,499.6l-6.8-3.7c0.4-0.5,0.9-0.9,1.3-1.3l6.8,3.7C146.6,498.6,146.2,499.1,145.7,499.6"/>
							<path class="st16" d="M147,498.2l-6.8-3.7c0.4-0.4,0.8-0.7,1.2-1l6.8,3.7C147.9,497.5,147.5,497.9,147,498.2"/>
							<path class="st15" d="M148.3,497.3l-6.8-3.7c0.4-0.3,0.8-0.5,1.2-0.7l6.8,3.7C149.1,496.7,148.7,497,148.3,497.3"/>
							<path class="st14" d="M149.5,496.5l-6.8-3.7c0.6-0.3,1.1-0.4,1.6-0.5l6.8,3.7C150.6,496.1,150.1,496.3,149.5,496.5"/>
						</g>
					</g>
				</g>
			</g>
		</g>
		<g>
			<g>
				<g class="st12">
					<g class="st12">
						<defs>
							<path id="SVGID_8_" class="st12" d="M377.8,478.2l8.7,4.7c-0.2-0.1-0.5-0.2-0.8-0.3c-0.6-0.2-1.3-0.2-1.9-0.1l-8.7-4.7
								c0.7-0.1,1.3-0.1,1.9,0.1C377.3,478,377.5,478.1,377.8,478.2z"/>
						</defs>
						<clipPath id="SVGID_9_">
							<use xlink:href="#SVGID_8_"  style="overflow:visible;"/>
						</clipPath>
						<g class="st24">
							<path class="st14" d="M383.7,482.5l-8.7-4.7c0.6-0.1,1.2-0.1,1.8,0.1l8.7,4.7C384.9,482.4,384.3,482.4,383.7,482.5"/>
							<path class="st15" d="M385.5,482.6l-8.7-4.7c0.1,0,0.1,0,0.2,0c0.2,0.1,0.4,0.1,0.6,0.2l8.7,4.7c-0.2-0.1-0.4-0.2-0.6-0.2
								C385.6,482.6,385.5,482.6,385.5,482.6"/>
							<path class="st16" d="M386.3,482.9l-8.7-4.7c0.1,0,0.1,0.1,0.2,0.1l8.7,4.7C386.4,482.9,386.3,482.9,386.3,482.9"/>
						</g>
					</g>
					<g>
						<path class="st17" d="M383.7,482.5c0.7-0.1,1.3-0.1,1.9,0.1c4.5,1.3,5.4,9.8,2.1,19c-2.8,7.9-7.9,13.6-12.1,14.2
							c-0.7,0.1-1.3,0.1-1.9-0.1c-4.5-1.4-5.4-9.8-2.1-19C374.4,488.8,379.5,483.1,383.7,482.5z"/>
					</g>
					<g class="st12">
						<defs>
							<path id="SVGID_10_" class="st12" d="M372.9,515.4l-8.7-4.7c-3.8-2.1-4.4-10.1-1.3-18.6c2.8-7.9,7.9-13.6,12.1-14.2l8.7,4.7
								c-4.2,0.6-9.3,6.4-12.1,14.2C368.5,505.3,369.1,513.3,372.9,515.4z"/>
						</defs>
						<clipPath id="SVGID_11_">
							<use xlink:href="#SVGID_10_"  style="overflow:visible;"/>
						</clipPath>
						<g class="st25">
							<path class="st19" d="M372.9,515.4l-8.7-4.7c-3.8-2.1-4.4-10.1-1.3-18.6c0-0.1,0-0.1,0.1-0.2l8.7,4.7c0,0.1,0,0.1-0.1,0.2
								C368.5,505.3,369.1,513.3,372.9,515.4"/>
							<path class="st20" d="M371.7,496.5l-8.7-4.7c0.6-1.6,1.3-3.2,2.1-4.6l8.7,4.7C373,493.3,372.3,494.9,371.7,496.5"/>
							<path class="st21" d="M373.7,491.9l-8.7-4.7c0.6-1.1,1.2-2.1,1.9-3.1l8.7,4.7C375,489.8,374.3,490.8,373.7,491.9"/>
							<path class="st22" d="M375.6,488.8l-8.7-4.7c0.6-0.8,1.1-1.5,1.7-2.2l8.7,4.7C376.7,487.3,376.2,488,375.6,488.8"/>
							<path class="st23" d="M377.3,486.6l-8.7-4.7c0.5-0.6,1-1.1,1.5-1.6l8.7,4.7C378.3,485.5,377.8,486.1,377.3,486.6"/>
							<path class="st16" d="M378.9,485.1l-8.7-4.7c0.5-0.4,1-0.8,1.4-1.1l8.7,4.7C379.8,484.3,379.3,484.6,378.9,485.1"/>
							<path class="st15" d="M380.3,483.9l-8.7-4.7c0.5-0.3,1-0.6,1.5-0.9l8.7,4.7C381.3,483.3,380.8,483.6,380.3,483.9"/>
							<path class="st14" d="M381.8,483.1l-8.7-4.7c0.7-0.3,1.3-0.5,1.9-0.6l8.7,4.7C383.1,482.6,382.4,482.8,381.8,483.1"/>
						</g>
					</g>
				</g>
			</g>
		</g>
		<g>
			<g>
				<g class="st12">
					<g class="st12">
						<defs>
							<path id="SVGID_12_" class="st12" d="M222.8,518.8l9.1,5c-0.2-0.1-0.5-0.2-0.8-0.3c-0.6-0.2-1.3-0.2-1.9-0.1l-9.1-5
								c0.7-0.1,1.3-0.1,1.9,0.1C222.3,518.5,222.6,518.6,222.8,518.8z"/>
						</defs>
						<clipPath id="SVGID_13_">
							<use xlink:href="#SVGID_12_"  style="overflow:visible;"/>
						</clipPath>
						<g class="st26">
							<path class="st14" d="M229.2,523.3l-9.1-5c0.6-0.1,1.2-0.1,1.8,0.1l9.1,5C230.4,523.2,229.8,523.2,229.2,523.3"/>
							<path class="st15" d="M231,523.3l-9.1-5c0.1,0,0.1,0,0.2,0c0.2,0.1,0.4,0.1,0.6,0.2l9.1,5c-0.2-0.1-0.4-0.2-0.6-0.2
								C231.1,523.4,231,523.4,231,523.3"/>
							<path class="st16" d="M231.8,523.6l-9.1-5c0.1,0,0.1,0.1,0.2,0.1l9.1,5C231.9,523.7,231.8,523.7,231.8,523.6"/>
						</g>
					</g>
					<g class="st12">
						<defs>
							<path id="SVGID_14_" class="st12" d="M218.4,556.1l-9.1-5c-3.8-2.1-4.4-10.1-1.3-18.6c2.8-7.9,7.9-13.6,12.1-14.2l9.1,5
								c-4.2,0.6-9.3,6.4-12.1,14.2C214,546.1,214.6,554.1,218.4,556.1z"/>
						</defs>
						<clipPath id="SVGID_15_">
							<use xlink:href="#SVGID_14_"  style="overflow:visible;"/>
						</clipPath>
						<g class="st27">
							<path class="st19" d="M218.4,556.1l-9.1-5c-3.8-2.1-4.4-10.1-1.3-18.6c0-0.1,0-0.1,0.1-0.2l9.1,5c0,0.1,0,0.1-0.1,0.2
								C214,546.1,214.6,554.1,218.4,556.1"/>
							<path class="st20" d="M217.2,537.3l-9.1-5c0.6-1.6,1.3-3.2,2.1-4.6l9.1,5C218.5,534.1,217.8,535.7,217.2,537.3"/>
							<path class="st21" d="M219.2,532.7l-9.1-5c0.6-1.1,1.2-2.1,1.9-3.1l9.1,5C220.5,530.5,219.8,531.6,219.2,532.7"/>
							<path class="st22" d="M221.1,529.6l-9.1-5c0.6-0.8,1.1-1.5,1.7-2.2l9.1,5C222.2,528.1,221.7,528.8,221.1,529.6"/>
							<path class="st23" d="M222.8,527.4l-9.1-5c0.5-0.6,1-1.1,1.5-1.6l9.1,5C223.8,526.3,223.3,526.8,222.8,527.4"/>
							<path class="st16" d="M224.4,525.9l-9.1-5c0.5-0.4,1-0.8,1.4-1.1l9.1,5C225.3,525,224.8,525.4,224.4,525.9"/>
							<path class="st15" d="M225.8,524.7l-9.1-5c0.5-0.3,1-0.6,1.5-0.9l9.1,5C226.8,524.1,226.3,524.4,225.8,524.7"/>
							<path class="st14" d="M227.3,523.9l-9.1-5c0.7-0.3,1.3-0.5,1.9-0.6l9.1,5C228.6,523.3,227.9,523.6,227.3,523.9"/>
						</g>
					</g>
					<g>
						<path class="st17" d="M229.2,523.3c0.7-0.1,1.3-0.1,1.9,0.1c4.5,1.3,5.4,9.8,2.1,19c-2.8,7.9-7.9,13.6-12.1,14.2
							c-0.7,0.1-1.3,0.1-1.9-0.1c-4.5-1.3-5.4-9.8-2.1-19C219.9,529.6,225,523.8,229.2,523.3z"/>
					</g>
				</g>
			</g>
		</g>
	</g>
	<g>
		<circle class="st28" cx="451.8" cy="296.2" r="10"/>
		<circle cx="449.6" cy="298.5" r="7.8"/>
	</g>
	<g>
		<circle class="st28" cx="330.1" cy="350.4" r="8.9"/>
		<circle cx="331.9" cy="352.3" r="6.9"/>
	</g>
	<g>
		<circle class="st28" cx="232" cy="425.6" r="9.2"/>
		<circle cx="234.4" cy="425" r="7.1"/>
	</g>
	<g>
		<circle class="st28" cx="406.3" cy="294.7" r="10"/>
		<circle cx="404" cy="296.9" r="7.8"/>
	</g>
	<g>
		<circle class="st28" cx="286" cy="344.5" r="8.9"/>
		<circle cx="287.8" cy="346.4" r="6.9"/>
	</g>
	<g>
		<circle class="st28" cx="189.9" cy="405.7" r="9.2"/>
		<circle cx="192.3" cy="405.2" r="7.1"/>
	</g>
</g>
<g id="Title">
	<g>
		<path class="st29" d="M253.8,587.1c-0.3,4.6-0.5,9.6-0.5,17.3v36.5c0,14.4-2.9,23.3-9,28.7c-6.1,5.7-15,7.5-22.9,7.5
			c-7.5,0-15.9-1.8-20.9-5.2l2.9-8.7c4.2,2.6,10.7,4.9,18.5,4.9c11.7,0,20.3-6.1,20.3-22v-7h-0.3c-3.5,5.9-10.3,10.5-20,10.5
			c-15.6,0-26.8-13.3-26.8-30.7c0-21.3,13.9-33.4,28.3-33.4c10.9,0,16.9,5.7,19.6,10.9h0.3l0.5-9.5H253.8z M241.9,611.9
			c0-2-0.1-3.6-0.7-5.2c-2.1-6.6-7.7-12.1-16-12.1c-10.9,0-18.7,9.2-18.7,23.8c0,12.4,6.2,22.6,18.6,22.6c7,0,13.4-4.4,15.9-11.7
			c0.6-2,0.9-4.2,0.9-6.1V611.9z"/>
		<path class="st29" d="M326.4,587.1c-0.3,4.6-0.5,9.6-0.5,17.3v36.5c0,14.4-2.9,23.3-9,28.7c-6.1,5.7-15,7.5-22.9,7.5
			c-7.5,0-15.9-1.8-20.9-5.2l2.9-8.7c4.2,2.6,10.7,4.9,18.5,4.9c11.7,0,20.3-6.1,20.3-22v-7h-0.3c-3.5,5.9-10.3,10.5-20,10.5
			c-15.6,0-26.8-13.3-26.8-30.7c0-21.3,13.9-33.4,28.3-33.4c10.9,0,16.9,5.7,19.6,10.9h0.3l0.5-9.5H326.4z M314.6,611.9
			c0-2-0.1-3.6-0.7-5.2c-2.1-6.6-7.7-12.1-16-12.1c-10.9,0-18.7,9.2-18.7,23.8c0,12.4,6.2,22.6,18.6,22.6c7,0,13.4-4.4,15.9-11.7
			c0.6-2,0.9-4.2,0.9-6.1V611.9z"/>
		<path class="st29" d="M389.7,647.7c-3,1.6-9.6,3.6-18.1,3.6c-19,0-31.3-12.9-31.3-32.1c0-19.4,13.3-33.4,33.8-33.4
			c6.8,0,12.7,1.7,15.9,3.2l-2.6,8.8c-2.7-1.6-7-3-13.3-3c-14.4,0-22.2,10.7-22.2,23.8c0,14.6,9.4,23.5,21.8,23.5
			c6.5,0,10.8-1.7,14-3.1L389.7,647.7z"/>
		<path class="st29" d="M438,650l-0.9-7.9h-0.4c-3.5,4.9-10.3,9.4-19.2,9.4c-12.7,0-19.2-9-19.2-18.1c0-15.2,13.5-23.5,37.8-23.4
			v-1.3c0-5.2-1.4-14.6-14.3-14.6c-5.9,0-12,1.8-16.4,4.7l-2.6-7.5c5.2-3.4,12.7-5.6,20.7-5.6c19.2,0,23.9,13.1,23.9,25.7v23.5
			c0,5.5,0.3,10.8,1,15.1H438z M436.3,617.9c-12.5-0.3-26.7,2-26.7,14.2c0,7.4,4.9,10.9,10.8,10.9c8.2,0,13.4-5.2,15.2-10.5
			c0.4-1.2,0.7-2.5,0.7-3.6V617.9z"/>
		<path class="st29" d="M465.8,606.7c0-7.4-0.1-13.8-0.5-19.6h10l0.4,12.4h0.5c2.9-8.5,9.8-13.8,17.4-13.8c1.3,0,2.2,0.1,3.2,0.4
			v10.8c-1.2-0.3-2.3-0.4-3.9-0.4c-8.1,0-13.8,6.1-15.3,14.7c-0.3,1.6-0.5,3.4-0.5,5.3V650h-11.3V606.7z"/>
		<path class="st29" d="M525.2,569v18.1h16.4v8.7h-16.4v33.9c0,7.8,2.2,12.2,8.6,12.2c3,0,5.2-0.4,6.6-0.8l0.5,8.6
			c-2.2,0.9-5.7,1.6-10.1,1.6c-5.3,0-9.6-1.7-12.4-4.8c-3.2-3.4-4.4-9-4.4-16.4v-34.3h-9.8v-8.7h9.8V572L525.2,569z"/>
	</g>
</g>
</svg>
